{
	"asset":{
		"generator":"Khronos glTF Blender I/O v4.2.60",
		"version":"2.0"
	},
	"scene":0,
	"scenes":[
		{
			"name":"Scene",
			"nodes":[
				0
			]
		}
	],
	"nodes":[
		{
			"mesh":0,
			"name":"Cube.002"
		}
	],
	"animations":[
		{
			"channels":[
				{
					"sampler":0,
					"target":{
						"node":0,
						"path":"weights"
					}
				}
			],
			"name":"Key.003Action",
			"samplers":[
				{
					"input":14,
					"interpolation":"LINEAR",
					"output":15
				}
			]
		}
	],
	"materials":[
		{
			"doubleSided":true,
			"name":"Material.004",
			"pbrMetallicRoughness":{
				"baseColorFactor":[
					0.8000473976135254,
					0.2745998799800873,
					0.26418668031692505,
					1
				],
				"metallicFactor":0,
				"roughnessFactor":0.5
			}
		}
	],
	"meshes":[
		{
			"extras":{
				"targetNames":[
					"Key 5",
					"Key 1",
					"Key 2",
					"Kippung",
					"Key 4"
				]
			},
			"name":"Cube.003",
			"primitives":[
				{
					"attributes":{
						"POSITION":0,
						"NORMAL":1,
						"TEXCOORD_0":2
					},
					"indices":3,
					"material":0,
					"targets":[
						{
							"POSITION":4,
							"NORMAL":5
						},
						{
							"POSITION":6,
							"NORMAL":7
						},
						{
							"POSITION":8,
							"NORMAL":9
						},
						{
							"POSITION":10,
							"NORMAL":11
						},
						{
							"POSITION":12,
							"NORMAL":13
						}
					]
				}
			],
			"weights":[
				1,
				0,
				0,
				0,
				0
			]
		}
	],
	"accessors":[
		{
			"bufferView":0,
			"componentType":5126,
			"count":34,
			"max":[
				0.9590543508529663,
				1.212907075881958,
				0.5932077765464783
			],
			"min":[
				-0.9590543508529663,
				1.049368977546692,
				-0.9515880942344666
			],
			"type":"VEC3"
		},
		{
			"bufferView":1,
			"componentType":5126,
			"count":34,
			"type":"VEC3"
		},
		{
			"bufferView":2,
			"componentType":5126,
			"count":34,
			"type":"VEC2"
		},
		{
			"bufferView":3,
			"componentType":5123,
			"count":60,
			"type":"SCALAR"
		},
		{
			"bufferView":4,
			"componentType":5126,
			"count":34,
			"max":[
				0.40662091970443726,
				-1.266845941543579,
				0.32748210430145264
			],
			"min":[
				-0.40662091970443726,
				-1.3360751867294312,
				-0.32748210430145264
			],
			"type":"VEC3"
		},
		{
			"componentType":5126,
			"count":34,
			"sparse":{
				"count":1,
				"indices":{
					"bufferView":5,
					"componentType":5121
				},
				"values":{
					"bufferView":6
				}
			},
			"type":"VEC3"
		},
		{
			"componentType":5126,
			"count":34,
			"max":[
				0,
				1.1920928955078125e-07,
				0
			],
			"min":[
				0,
				0,
				0
			],
			"sparse":{
				"count":2,
				"indices":{
					"bufferView":7,
					"componentType":5121
				},
				"values":{
					"bufferView":8
				}
			},
			"type":"VEC3"
		},
		{
			"componentType":5126,
			"count":34,
			"sparse":{
				"count":1,
				"indices":{
					"bufferView":9,
					"componentType":5121
				},
				"values":{
					"bufferView":10
				}
			},
			"type":"VEC3"
		},
		{
			"bufferView":11,
			"componentType":5126,
			"count":34,
			"max":[
				0,
				0.6285586357116699,
				0
			],
			"min":[
				0,
				0,
				0
			],
			"type":"VEC3"
		},
		{
			"componentType":5126,
			"count":34,
			"sparse":{
				"count":1,
				"indices":{
					"bufferView":12,
					"componentType":5121
				},
				"values":{
					"bufferView":13
				}
			},
			"type":"VEC3"
		},
		{
			"bufferView":14,
			"componentType":5126,
			"count":34,
			"max":[
				0,
				0.8926665782928467,
				-0.010944783687591553
			],
			"min":[
				0,
				-0.4207860827445984,
				-0.6141489744186401
			],
			"type":"VEC3"
		},
		{
			"bufferView":15,
			"componentType":5126,
			"count":34,
			"type":"VEC3"
		},
		{
			"bufferView":16,
			"componentType":5126,
			"count":34,
			"max":[
				0,
				0.35922670364379883,
				-0.010944783687591553
			],
			"min":[
				0,
				-0.4207860827445984,
				-1.6959145069122314
			],
			"type":"VEC3"
		},
		{
			"bufferView":17,
			"componentType":5126,
			"count":34,
			"type":"VEC3"
		},
		{
			"bufferView":18,
			"componentType":5126,
			"count":301,
			"max":[
				27.083333333333332
			],
			"min":[
				14.583333333333334
			],
			"type":"SCALAR"
		},
		{
			"bufferView":19,
			"componentType":5126,
			"count":1505,
			"type":"SCALAR"
		}
	],
	"bufferViews":[
		{
			"buffer":0,
			"byteLength":408,
			"byteOffset":0,
			"target":34962
		},
		{
			"buffer":0,
			"byteLength":408,
			"byteOffset":408,
			"target":34962
		},
		{
			"buffer":0,
			"byteLength":272,
			"byteOffset":816,
			"target":34962
		},
		{
			"buffer":0,
			"byteLength":120,
			"byteOffset":1088,
			"target":34963
		},
		{
			"buffer":0,
			"byteLength":408,
			"byteOffset":1208,
			"target":34962
		},
		{
			"buffer":0,
			"byteLength":1,
			"byteOffset":1616
		},
		{
			"buffer":0,
			"byteLength":12,
			"byteOffset":1620
		},
		{
			"buffer":0,
			"byteLength":2,
			"byteOffset":1632
		},
		{
			"buffer":0,
			"byteLength":24,
			"byteOffset":1636
		},
		{
			"buffer":0,
			"byteLength":1,
			"byteOffset":1660
		},
		{
			"buffer":0,
			"byteLength":12,
			"byteOffset":1664
		},
		{
			"buffer":0,
			"byteLength":408,
			"byteOffset":1676,
			"target":34962
		},
		{
			"buffer":0,
			"byteLength":1,
			"byteOffset":2084
		},
		{
			"buffer":0,
			"byteLength":12,
			"byteOffset":2088
		},
		{
			"buffer":0,
			"byteLength":408,
			"byteOffset":2100,
			"target":34962
		},
		{
			"buffer":0,
			"byteLength":408,
			"byteOffset":2508,
			"target":34962
		},
		{
			"buffer":0,
			"byteLength":408,
			"byteOffset":2916,
			"target":34962
		},
		{
			"buffer":0,
			"byteLength":408,
			"byteOffset":3324,
			"target":34962
		},
		{
			"buffer":0,
			"byteLength":1204,
			"byteOffset":3732
		},
		{
			"buffer":0,
			"byteLength":6020,
			"byteOffset":4936
		}
	],
	"buffers":[
		{
			"byteLength":10956,
			"uri":"data:application/octet-stream;base64,"
		}
	]
}
